# xmcd
#
# Track frame offsets: 
#        150
#        14322
#        30727
#        43115
#        60680
#        69460
#        87292
#        96895
#        122685
#        131787
#        149825
#        158682
#
# Disc length: 2357 seconds
#
# Revision: 2
# Processed by: cddbd v1.5.2PL0 Copyright (c) Steve Scherf et al.
# Submitted via: ExactAudioCopyFreeDBPlugin 1.0
#
DISCID=a909330c
DTITLE=Various Artist - [B'T X] BEST
DYEAR=1998
DGENRE=Anime
TTITLE0=千住 明 - エックス復活!
TTITLE1=FENCE OF DEFENSE - 遥か〜SAILING FOR MY DREAM〜
TTITLE2=千住 明 - 廃墟の戦士
TTITLE3=高宮鉄兵 (檜山修之) - 君を守りたい
TTITLE4=千住 明 - バトル・ギア、オン!
TTITLE5=高宮鋼太郎 (佐々木 望) - 信じる心
TTITLE6=千住 明 - 光るメサイヤフィスト
TTITLE7=華蓮 (緒方恵美) - 光を探して
TTITLE8=千住 明 - 長老の樹
TTITLE9=アラミス (湯屋敦子) - いつか聞いた風の歌
TTITLE10=千住 明 - エックスに吹く風
TTITLE11=BLUE BOY - 僕の生き方
EXTD=
EXTT0=
EXTT1=
EXTT2=
EXTT3=
EXTT4=
EXTT5=
EXTT6=
EXTT7=
EXTT8=
EXTT9=
EXTT10=
EXTT11=
PLAYORDER=
